<mxfile host="app.diagrams.net" agent="Mozilla/5.0 (Windows NT 10.0; Win64; x64) AppleWebKit/537.36 (KHTML, like Gecko) Chrome/139.0.0.0 Safari/537.36" version="28.1.1">
  <diagram name="第 1 页" id="jTSbvHPS3UjfGQJ6NTPY">
    <mxGraphModel dx="788" dy="469" grid="1" gridSize="10" guides="1" tooltips="1" connect="1" arrows="1" fold="1" page="1" pageScale="1" pageWidth="827" pageHeight="1169" math="0" shadow="0">
      <root>
        <mxCell id="0" />
        <mxCell id="1" parent="0" />
        <mxCell id="bGuDQTHDIBOHRL4KEgD5-15" value="" style="rounded=0;whiteSpace=wrap;html=1;" vertex="1" parent="1">
          <mxGeometry x="200" y="300" width="440" height="80" as="geometry" />
        </mxCell>
        <mxCell id="bGuDQTHDIBOHRL4KEgD5-13" value="" style="rounded=0;whiteSpace=wrap;html=1;" vertex="1" parent="1">
          <mxGeometry x="60" y="150" width="580" height="90" as="geometry" />
        </mxCell>
        <mxCell id="bGuDQTHDIBOHRL4KEgD5-26" style="edgeStyle=orthogonalEdgeStyle;rounded=0;orthogonalLoop=1;jettySize=auto;html=1;exitX=1;exitY=0.5;exitDx=0;exitDy=0;endSize=4;" edge="1" parent="1" source="bGuDQTHDIBOHRL4KEgD5-1" target="bGuDQTHDIBOHRL4KEgD5-2">
          <mxGeometry relative="1" as="geometry" />
        </mxCell>
        <mxCell id="bGuDQTHDIBOHRL4KEgD5-1" value="&lt;font style=&quot;vertical-align: inherit;&quot; dir=&quot;auto&quot;&gt;&lt;font style=&quot;vertical-align: inherit; font-size: 10px;&quot; dir=&quot;auto&quot;&gt;Timer triggered&lt;/font&gt;&lt;/font&gt;" style="rounded=1;whiteSpace=wrap;html=1;" vertex="1" parent="1">
          <mxGeometry x="80" y="180" width="70" height="30" as="geometry" />
        </mxCell>
        <mxCell id="bGuDQTHDIBOHRL4KEgD5-27" style="edgeStyle=orthogonalEdgeStyle;rounded=0;orthogonalLoop=1;jettySize=auto;html=1;exitX=1;exitY=0.5;exitDx=0;exitDy=0;entryX=0;entryY=0.5;entryDx=0;entryDy=0;endSize=4;" edge="1" parent="1" source="bGuDQTHDIBOHRL4KEgD5-2" target="bGuDQTHDIBOHRL4KEgD5-3">
          <mxGeometry relative="1" as="geometry" />
        </mxCell>
        <mxCell id="bGuDQTHDIBOHRL4KEgD5-2" value="&lt;font style=&quot;vertical-align: inherit;&quot; dir=&quot;auto&quot;&gt;&lt;font style=&quot;vertical-align: inherit; font-size: 10px;&quot; dir=&quot;auto&quot;&gt;Intelligent dump task&lt;/font&gt;&lt;/font&gt;" style="rounded=1;whiteSpace=wrap;html=1;" vertex="1" parent="1">
          <mxGeometry x="200" y="180" width="70" height="30" as="geometry" />
        </mxCell>
        <mxCell id="bGuDQTHDIBOHRL4KEgD5-28" style="edgeStyle=orthogonalEdgeStyle;rounded=0;orthogonalLoop=1;jettySize=auto;html=1;exitX=1;exitY=0.5;exitDx=0;exitDy=0;entryX=0;entryY=0.5;entryDx=0;entryDy=0;endSize=4;" edge="1" parent="1" source="bGuDQTHDIBOHRL4KEgD5-3" target="bGuDQTHDIBOHRL4KEgD5-4">
          <mxGeometry relative="1" as="geometry" />
        </mxCell>
        <mxCell id="bGuDQTHDIBOHRL4KEgD5-3" value="&lt;span style=&quot;font-size: 10px;&quot;&gt;Collect historical sequences&lt;/span&gt;" style="rounded=1;whiteSpace=wrap;html=1;" vertex="1" parent="1">
          <mxGeometry x="310" y="180" width="80" height="30" as="geometry" />
        </mxCell>
        <mxCell id="bGuDQTHDIBOHRL4KEgD5-29" style="edgeStyle=orthogonalEdgeStyle;rounded=0;orthogonalLoop=1;jettySize=auto;html=1;exitX=1;exitY=0.5;exitDx=0;exitDy=0;entryX=0;entryY=0.5;entryDx=0;entryDy=0;" edge="1" parent="1" source="bGuDQTHDIBOHRL4KEgD5-4" target="bGuDQTHDIBOHRL4KEgD5-6">
          <mxGeometry relative="1" as="geometry" />
        </mxCell>
        <mxCell id="bGuDQTHDIBOHRL4KEgD5-4" value="" style="shape=image;imageAspect=0;aspect=fixed;verticalLabelPosition=bottom;verticalAlign=top;image=data:image/svg+xml,PHN2ZyB4bWxuczp4bGluaz0iaHR0cDovL3d3dy53My5vcmcvMTk5OS94bGluayIgeG1sbnM9Imh0dHA6Ly93d3cudzMub3JnLzIwMDAvc3ZnIiBoZWlnaHQ9IjE5OS41MTczMDk2NjU2Nzk5MyIgd2lkdGg9IjIwMC4xNDMwNTExNDc0NjA5NCIgdmVyc2lvbj0iMS4xIiB2aWV3Qm94PSIwLjAxMTQ5OTQwNDkwNzIyNjU2MiAwLjAwMDAxNTI1ODc4OTA2MjUgMTAyNC43MzI0MjE4NzUgMTAyMS41Mjg2MjU0ODgyODEyIiBjbGFzcz0iaWNvbiI+PHBhdGggZmlsbD0iIzAwNjQwMCIgZD0iTTEyMy43MDg2MDggMTU2LjQ4NTQyMWM2LjM3MjcyNiAwIDExLjkzNzIwNS0zLjk5NDYxMSAxNS4xMjM1NjgtMTAuMzUxNzk1IDIzLjA4MTcwNC01OC4wODUwNjkgNTguMDg1MDY5LTk0LjcwNDkzMSAxMDMuNDU1NzcyLTEwOC4yNDMwODkgOTYuMzY4MDU3LTI4LjY2MTcyNSAyMTIuNDkxNTY3IDUyLjUyMDU5MSAyMTMuMjg0MjcyIDUzLjMxMzI5NmExNS45OTg2NTIgMTUuOTk4NjUyIDAgMCAwIDE4LjI5NDM4OC0yNi4yNTI1MjRjLTUuNTY0NDc4LTMuOTc5MDY4LTEyOS43MDgyOTctOTAuNzI1ODYzLTI0MS4xMzc3NDktNTcuMzA3OTA4LTU1LjcwNjk1NSAxNi43NDAwNjQtOTcuMDgzMDQ2IDU4LjkwODg2MS0xMjQuMTQzODE5IDEyNy4zNDU3MjVhMTYuMTQ5NDIxIDE2LjE0OTQyMSAwIDAgMCA4Ljc2NjM4NSAyMC42ODgwNDYgMTkuNDI5MDQ0IDE5LjQyOTA0NCAwIDAgMCA2LjM1NzE4MyAwLjgwODI0OXoiLz48cGF0aCBmaWxsPSIjMDA2NDAwIiBkPSJNNjQuMDIyNTg1IDMzMy4yMTIwMDNhMTYuNzU1NjA3IDE2Ljc1NTYwNyAwIDAgMCAxMC4zNTE3OTUtMy45NzkwNjggMTYuMTQ5NDIxIDE2LjE0OTQyMSAwIDAgMCAxLjU1NDMyMy0yMi4yODg5OTljLTUxLjcyNzg4Ni02MC40Nzg3MjgtMS41NTQzMjQtMTA5LjgxMjk1NiA0Ljc3MTc3NC0xMTUuMzkyOTc3IDI3Ljg1MzQ3Ny0yNi4yNTI1MjQgNTUuNzIyNDk4LTM3LjM5NzAyNCA4MS45NzUwMjEtMzIuNjQwNzk0IDQ5LjM0OTc3MSA3Ljk1ODEzNiA4MS45NzUwMjIgNjQuNDczMzM5IDg1Ljk1NDA5IDcxLjYyMzIyNyAxMC4zMzYyNTEgMjUuNDc1MzYyIDI3LjA0NTIyOSA0Mi45NzcwNDUgNDguNTQxNTIzIDUwLjE0MjQ3NyAzNi42MDQzMTkgMTIuNzI5OTEgNzMuMjA4NjM3LTcuMTY1NDMxIDc0LjgwOTU5MS04Ljc1MDg0MmwyLjM3ODExNS0xLjU1NDMyMyAxLjU1NDMyMy0yLjM3ODExNWMyMi4yODg5OTktMjUuNDc1MzYyIDMxLjA4NjQ3LTUwLjkzNTE4MSAyNi4yNjgwNjgtNzQuODA5NTktNi4zNzI3MjYtMzQuMTk1MTE3LTM4LjIwNTI3Mi01MC45MzUxODEtMzkuNzkwNjgyLTUxLjcyNzg4N2wtMS41NTQzMjQtMC44MDgyNDgtMi4zOTM2NTgtMC43OTI3MDVjLTQ4LjU0MTUyMy0xMC4zMzYyNTEtNjIuMDc5NjgxLTI2LjI1MjUyNC02NS4yODE1ODctMzQuMTk1MTE3LTQuNzcxNzczLTEwLjM1MTc5NSAxLjU1NDMyNC0yMC43MDM1ODkgMS41NTQzMjMtMjAuNzAzNTg5IDQuNzg3MzE2LTcuMTQ5ODg4IDIuMzkzNjU4LTE3LjUwMTY4My00Ljc3MTc3My0yMi4yNzM0NTZhMTUuNTQzMjM1IDE1LjU0MzIzNSAwIDAgMC0yMS4zODc0OTEgNC43NDA2ODdjLTUuNTgwMDIxIDguNzY2Mzg1LTEzLjUzODE1OCAyOC42NDYxODItNC43ODczMTcgNTAuMTQyNDc2IDEwLjM1MTc5NSAyNC42NjcxMTQgMzguOTk3OTc3IDQyLjk3NzA0NSA4NS45NTQwOSA1My4zMTMyOTYgNC43NzE3NzMgMy4xMDg2NDcgMTkuMTAyNjM2IDEyLjcyOTkxIDIxLjQ4MDc1MSAyOC42NjE3MjYgMi4zOTM2NTggMTMuNTIyNjE1LTMuMTA4NjQ3IDI4LjY0NjE4Mi0xNy41MDE2ODMgNDUuMzU1MTYtNy4xNjU0MzEgMy4xODYzNjMtMjcuODUzNDc3IDExLjkzNzIwNS00Ni4xNjM0MDggNC43NzE3NzMtMTIuNzI5OTEtNC43NzE3NzMtMjIuMjczNDU2LTE1LjkxNjI3My0yOS40Mzg4ODctMzIuNjQwNzk0bC0wLjc5MjcwNS0xLjU1NDMyM2MtMS41NTQzMjQtMy4xMDg2NDctNDIuMTg0MzQtNzcuMTg3NzA1LTEwOS4wMjAyNTEtODguMzMyMjA1LTM2LjYxOTg2Mi02LjQ2NTk4Ni03My4yMjQxOCA3LjExODgwMi0xMDkuMDM1Nzk0IDQwLjQ5MDEyNy0wLjc5MjcwNSAwLjc5MjcwNS04MC4zNzQwNjkgNzQuMDAxMzQyLTcuMTY1NDMxIDE1OS4xNDcxODRhMTMuMTk2MjA3IDEzLjE5NjIwNyAwIDAgMCAxMS45MzcyMDQgNi4zNzI3MjZ6Ii8+PHBhdGggZmlsbD0iIzAwNjQwMCIgZD0iTTc1Ljk1OTc5IDU0OS42MDQ5MjJhMTQuMzE1MzIgMTQuMzE1MzIgMCAwIDAgMTEuOTM3MjA0LTUuNTY0NDc4IDE2LjE0OTQyMSAxNi4xNDk0MjEgMCAwIDAtMS41NTQzMjMtMjIuMjg4OTk5Yy05MC43NTY5NS03OC43NzMxMTUtMzkuODIxNzY4LTE1Mi43OTAwMDEtMzcuNDQzNjUzLTE1NS44OTg2NDhsMC44MDgyNDgtMS41NTQzMjNjMzguMTg5NzI5LTY4LjM5MDIzNCAxMzIuMTE3NDk4LTQyLjk3NzA0NSAxNDAuODUyNzk2LTQwLjU4MzM4NyA3OC43ODg2NTkgMzQuMTk1MTE3IDQ2Ljk1NjExMyAxNDIuNDM4MjA2IDQ2Ljk1NjExMyAxNDMuMjQ2NDU0YTE1Ljg1ODc2MyAxNS44NTg3NjMgMCAxIDAgMzAuMjQ3MTM2IDkuNTQzNTQ3YzE0LjMxNTMyLTQ3Ljc0ODgxOCAxOS44Nzk3OTgtMTQ2LjQzMjgxOC02NS4yODE1ODgtMTgyLjI0NDQzMmwtMS41NTQzMjMtMC43OTI3MDVjLTQzLjc2OTc1LTEzLjUyMjYxNS0xMzYuODg5MjcxLTE5Ljg5NTM0MS0xNzkuMDczNjExIDU0LjEyMTU0NS0yNC42NjcxMTQgMzUuMDAzMzY1LTQ2Ljk0MDU3IDEyMC4xNjQ3NSA0Mi45NzcwNDUgMTk3LjM5OTA4NWExMy45ODg5MTIgMTMuOTg4OTEyIDAgMCAwIDExLjE0NDQ5OSA0Ljc3MTc3M3oiLz48cGF0aCBmaWxsPSIjMDA2NDAwIiBkPSJNMTUzLjE0NzQ5NSAzMDkuMjc1NDIxYTEwLjE0OTczMyAxMC4xNDk3MzMgMCAwIDAgNC43ODczMTctMC43OTI3MDVjOC43NTA4NDEtMi4zOTM2NTggMTIuNzI5OTEtMTEuOTM3MjA1IDEwLjM1MTc5NC0xOS44OTUzNDEtNC43ODczMTYtMTUuMTIzNTY4LTEwLjM1MTc5NS01MC4xNDI0NzYgMS41NTQzMjQtNjEuMjg2OTc1YTE1Ljc2NTUwMyAxNS43NjU1MDMgMCAxIDAtMjEuNDY1MjA4LTIzLjA5NzI0OGMtMzAuMjMxNTkyIDI3Ljg1MzQ3Ny0xMi43Mjk5MSA4Ny41Mzk1LTEwLjMzNjI1MSA5My44OTY2ODNhMTUuOTYyOTAyIDE1Ljk2MjkwMiAwIDAgMCAxNS4xMDgwMjQgMTEuMTQ0NXpNMzEzLjk3MzM0OSA4OTMuNDA1NzM5YTI2LjY3MjE5MSAyNi42NzIxOTEgMCAwIDAgNy45NTgxMzYtMC44MDgyNDhjMjQuNjY3MTE0LTMuMTA4NjQ3IDQ2LjE2MzQwOC0xOC4yOTQzODggNjMuNzI3MjY0LTQ2LjE0Nzg2NWwxLjU1NDMyMy0zLjE4NjM2NGMwLjgwODI0OC0xLjU1NDMyNCAxNS4xMjM1NjgtNDIuOTc3MDQ1LTYuMzU3MTgzLTc0LjgwOTU5LTEzLjUyMjYxNS0xOS44OTUzNDEtMzguMjA1MjcyLTMwLjIzMTU5Mi03MS42MjMyMjctMzAuMjMxNTkyIDAgMCAwLTIuMzkzNjU4IDAuNzkyNzA1LTIuMzkzNjU4IDI0LjY2NzExNC00Ny43NDg4MTggNDMuNzY5NzUtMTUyLjc5MDAwMS01OC4xMDA2MTMtMjEzLjI2ODcyOS0zLjEwODY0Ny0xLjU1NDMyNC02Mi4wNjQxMzgtMzMuNDMzNDk5LTEyNy4zMzAxODItMTQuMzMwODYzQzgyLjM3OTE0NiA1MjAuOTU4NzQgNDguMTg0MDI5IDU1MS45OTg1OCAyMi42NDY0OTQgNTk5Ljc0NzM5OWwtMC44MDgyNDkgMC43OTI3MDRjLTI3LjA0NTIyOSA1OS42ODYwMjMtMzYuNjA0MzE5IDE5Mi41ODA2ODMgMTE4LjU3OTM0MSAyNzEuMzg0ODg1YTE2LjAyNTA3NSAxNi4wMjUwNzUgMCAwIDAgMTQuMzMwODYyLTI4LjY2MTcyNkMtOS4xODYwNTIgNzYwLjQ5NTUzNiA0NS43MjgxOTggNjIzLjYyMTgwOCA1MC40OTk5NzEgNjE0LjA3ODI2MWMyMS40ODA3NTEtMzkuNzkwNjgyIDQ4LjU0MTUyMy02NS4yODE1ODcgODEuOTU5NDc4LTc1LjYxNzgzOCA1Mi41MzYxMzUtMTUuOTAwNzI5IDEwMi42NjMwNjggMTAuMzUxNzk1IDEwMi42NjMwNjggMTEuMTQ0NDk5IDEwMi41ODUzNTIgNjAuNDk0MjcxIDQ3Ljc0ODgxOCAxNjcuMTIwODY0IDQ1LjM3MDcwMyAxNzEuOTA4MThsLTAuODA4MjQ4IDIuMzc4MTE1Yy01LjU2NDQ3OCAxNS4xMjM1NjgtMy45NzkwNjggMjcuMDYwNzcyIDMuMTg2MzYzIDM1Ljc0OTQ0MXMxOC4zMDk5MzEgMTAuMzUxNzk1IDI3LjA2MDc3MiA5LjU1OTA4OWMyMi4yNzM0NTYgMC43OTI3MDUgMzcuMzk3MDI0IDYuMzU3MTgzIDQ1LjM3MDcwNCAxNy41MDE2ODMgMTEuMTI4OTU2IDE1LjkxNjI3MyA0Ljc3MTc3MyAzOC45OTc5NzcgMy4xMDg2NDcgNDUuMzU1MTYtMTEuMTQ0NSAxNy41MTcyMjYtMjQuNjY3MTE0IDI3Ljg1MzQ3Ny0zOC45OTc5NzcgMjkuNDU0NDMtMjcuMDQ1MjI5IDMuMTg2MzYzLTUyLjUyMDU5MS0yMS40ODA3NTEtNTIuNTIwNTkxLTIyLjI4ODk5OWExNS43NjA4NCAxNS43NjA4NCAwIDEgMC0yMi4yNzM0NTYgMjIuMjg4OTk5YzAuNzkyNzA1IDEuNTU0MzI0IDMxLjA4NjQ3IDMxLjgzMjU0NSA2OS4yMjk1NjkgMzEuODMyNTQ2eiIvPjxwYXRoIGZpbGw9IiMwMDY0MDAiIGQ9Ik0xNTkuNTIwMjIyIDUzMi4xNjU0MTJhMTUuNTQzMjM1IDE1LjU0MzIzNSAwIDAgMCAxNS4xMjM1NjctMTEuMTQ0NDk5YzIuMzc4MTE1LTcuOTU4MTM2LTEuNTU0MzI0LTE2LjcwODk3OC05LjU1OTA4OS0xOS4xMDI2MzYtNi4zNTcxODMtMy45NjM1MjUtMTkuODc5Nzk4LTI3LjA0NTIyOS0xMS45MzcyMDUtOTIuMzExMjczIDAuODA4MjQ4LTguNzUwODQxLTUuNTY0NDc4LTE2LjcwODk3OC0xMy41MjI2MTQtMTcuNTAxNjgzLTguNzUwODQxLTAuNzkyNzA1LTE2LjcwODk3OCA1LjU2NDQ3OC0xNy41MDE2ODMgMTMuNTIyNjE1LTEyLjc0NTQ1MyAxMDcuMzcyNjY4IDI1LjUzNzUzNSAxMjQuMDk3MTg5IDMzLjQxNzk1NSAxMjYuNTM3NDc2eiBtMTc1Ljg3MTcwNSA0ODEuNDA1MDc3YzQyLjE4NDM0IDAgOTAuNzI1ODYzLTExLjE0NDUgMTM3LjY4MTk3Ni00Ni45NTYxMTMgNy4xNjU0MzEtNS41NjQ0NzggOC43NTA4NDEtMTUuMTA4MDI0IDMuMTg2MzYzLTIyLjI3MzQ1NnMtMTUuMTIzNTY4LTguNzY2Mzg1LTIyLjI4ODk5OS0zLjEwODY0N2MtMTEwLjYyMTIwNCA4My41NjA0MzItMjI5LjE4NTAwMSAxMS45MzcyMDUtMjMwLjAzOTg3OSAxMS4xNDQ1cS00MC41MjEyMTQtMjYuMzQ1NzgzLTQ3LjcwMjE4OS02Mi4xNTczOTdjLTYuMzU3MTgzLTM1Ljc0OTQ0MSAxNy41MTcyMjYtNjcuNjQ0MTU5IDE3LjUxNzIyNi02OC4zOTAyMzVDMjEyLjA1NjM1NiA3OTcuOTU0NzMyIDIxOS4xNTk2MTUgNzc1LjYxOTEwMyAyMTYuMDUwOTY4IDc1NC4xMzgzNTNjLTMuOTYzNTI1LTIzLjg3NDQwOS0xOS44OTUzNDEtMzUuNzQ5NDQxLTIxLjQ4MDc1MS0zNi42MDQzMTktNjIuMDc5NjgxLTQ2Ljk1NjExMy0zNi42MDQzMTktMTAxLjAzMTAyOC0zNi42MDQzMTktMTAxLjAzMTAyOGExNi4wNDM3MjcgMTYuMDQzNzI3IDAgMCAwLTI4LjY3NzI2OS0xNC4zOTMwMzZjLTEyLjc0NTQ1MyAyNy4wNjA3NzItMTkuOTEwODg0IDkwLjcxMDMyIDQ2LjE0Nzg2NSAxNDAuODUyNzk3IDIuMzkzNjU4IDIuMzkzNjU4IDIzLjA4MTcwNCAxOS4xMDI2MzYtNy4xNDk4ODggNTguODkzMzE3LTEuNTU0MzI0IDEuNTU0MzI0LTMyLjY0MDc5NCA0Mi45NzcwNDUtMjMuODg5OTUyIDkyLjMxMTI3M3E4LjM2MjI2IDQ4Ljk0NTY0NyA2Mi4wNzk2ODEgODMuNTYwNDMyYzAuNzkyNzA1IDIuMzc4MTE1IDU2LjQ5OTY2IDM1Ljc0OTQ0MSAxMjguOTE1NTkyIDM1Ljc0OTQ0MXpNMzgyLjM2MzU4MyA3MTkuMTE5NDQ0YTE1LjcxNDIxMSAxNS43MTQyMTEgMCAwIDAgMTEuMTQ0NS00Ljc3MTc3M2MxLjU1NDMyNC0xLjU1NDMyNCA0Ny43NDg4MTgtNDguNTQxNTIzIDM0LjE5NTExNy0xMTYuMTg1Njgydi0xLjU1NDMyNGMtMC44MDgyNDgtMi4zOTM2NTgtMTUuMTIzNTY4LTUxLjcyNzg4Ni00Mi4xODQzNC03OC43ODg2NTlsLTIuMzkzNjU5LTIuMzc4MTE1YzAtMS41NTQzMjQgMS41NTQzMjQtNS41ODAwMjEgOC43NjYzODUtMTIuNzI5OTA5bDEuNTU0MzI0LTEuNTU0MzI0IDAuNzkyNzA1LTEuNTU0MzIzYzE1LjkxNjI3My0yMy44NzQ0MDkgMzIuNjQwNzk0LTg0LjM1MzEzNy0yMi4yNzM0NTYtMTQwLjg2ODM0LTEuNTU0MzI0LTEuNTU0MzI0LTQxLjM5MTYzNS00Mi45NjE1MDItMTIzLjM1MTExNC0xMy41MjI2MTRhMTYuMTE4MzM1IDE2LjExODMzNSAwIDAgMCAxMS4xMjg5NTYgMzAuMjQ3MTM1YzYxLjI4Njk3Ni0yMi4yODg5OTkgODguMzQ3NzQ4IDMuOTc5MDY4IDg5LjE0MDQ1NCA1LjU2NDQ3OCA0Ni4xNDc4NjUgNDcuNzQ4ODE4IDIzLjg3NDQwOSA5MS41MTg1NjggMTkuMTAyNjM2IDk5LjQ3NjcwNS0xMi43Mjk5MSAxMS45MzcyMDUtMTguMzA5OTMxIDI0LjY2NzExNC0xNy41MTcyMjYgMzcuMzk3MDI0IDAuNzkyNzA1IDEwLjM1MTc5NSA3LjE2NTQzMSAxOC4zMDk5MzEgMTIuNzI5OTA5IDIzLjA4MTcwNCAxNi43MjQ1MjEgMTcuNTE3MjI2IDI4LjY2MTcyNSA1MC45MzUxODEgMzIuNjQwNzk0IDYzLjcyNzI2MyA5LjU1OTA5IDUwLjE0MjQ3Ni0yNS40NTk4MTkgODUuOTU0MDktMjUuNDU5ODE5IDg2Ljc0Njc5NWExNS4zODc4MDMgMTUuMzg3ODAzIDAgMCAwIDAgMjIuMjg5YzMuOTc5MDY4IDMuOTc5MDY4IDcuOTU4MTM2IDUuNTY0NDc4IDExLjkzNzIwNCA1LjU2NDQ3OHpNOTAyLjAyMDU2MSAxNjQuNDQzNTU3YTEzLjMyMDU1MiAxMy4zMjA1NTIgMCAwIDAgNS41NjQ0NzktMC44MDgyNDggMTYuMTMzODc4IDE2LjEzMzg3OCAwIDAgMCA4Ljc1MDg0MS0yMC42ODgwNDZjLTI3LjA0NTIyOS02Ny42NDQxNTktNjguMzkwMjM0LTExMC42MDU2NjEtMTI0LjE0MzgxOS0xMjcuMzMwMTgyQzY4MC43OTM2OTYtMTcuMDA4MTY5IDU1Ni42MzQzMzUgNjkuNzM4NjI2IDU1MS4wNjk4NTcgNzIuOTI0OTg5Yy03LjE2NTQzMSA0Ljc3MTc3My04Ljc2NjM4NSAxNS4xMjM1NjgtMy45NzkwNjkgMjIuMjczNDU2czE1LjEwODAyNCA4Ljc1MDg0MSAyMi4yNzM0NTYgMy45NzkwNjhjMC43OTI3MDUtMC43OTI3MDUgMTE2Ljk5MzkzLTgxLjk1OTQ3OSAyMTMuMjg0MjcyLTUzLjMxMzI5NyA0NS4zNTUxNiAxMy41MjI2MTUgODAuMzc0MDY5IDUwLjEyNjkzMyAxMDMuNDU1NzczIDEwOC4yMjc1NDYgMy45NzkwNjggNy4xNjU0MzEgOS41NDM1NDYgMTAuMzUxNzk1IDE1LjkxNjI3MiAxMC4zNTE3OTV6Ii8+PHBhdGggZmlsbD0iIzAwNjQwMCIgZD0iTTk2MS43MDY1ODQgMzQxLjEwNzk2N2ExNC4zMTUzMiAxNC4zMTUzMiAwIDAgMCAxMS45MzcyMDUtNS41NjQ0NzhjNzMuMjA4NjM3LTg1LjE2MTM4NS02LjM3MjcyNi0xNTguMzcwMDIyLTcuMTY1NDMyLTE1OS4xNjI3MjgtODUuMTc2OTI4LTcwLjA5OTk5LTE1Mi43OTAwMDEtMjkuNDU0NDMtMTU1LjEyMTQ4Ni0yNy44NTM0NzdhMTYuMzIwMzk3IDE2LjMyMDM5NyAwIDAgMC00Ljc3MTc3MyAyMi4yNzM0NTYgMTUuNTQzMjM1IDE1LjU0MzIzNSAwIDAgMCAyMS40ODA3NTEgNC43ODczMTZjMi4zOTM2NTgtMS41NTQzMjQgNTEuNzI3ODg2LTI5LjUzMjE0NyAxMTcuNzg2NjM1IDI0LjY2NzExNCA1LjU2NDQ3OCA0Ljc3MTc3MyA1NS43MDY5NTUgNTQuMTA2MDAxIDMuOTc5MDY4IDExNC41ODQ3M2ExNi4xNjQ5NjQgMTYuMTY0OTY0IDAgMCAwIDEuNTU0MzI0IDIyLjI4ODk5OSAxOC42NTE4ODIgMTguNjUxODgyIDAgMCAwIDEwLjM1MTc5NSAzLjk3OTA2OHoiLz48cGF0aCBmaWxsPSIjMDA2NDAwIiBkPSJNOTQ5Ljc2OTM4IDU1Ny41NjMwNTlhMTYuNzQwMDY0IDE2Ljc0MDA2NCAwIDAgMCAxMC4zMzYyNTEtMy45NjM1MjVjOTAuNzI1ODYzLTc3Ljk5NTk1NCA2Ni44MzU5MTEtMTYzLjk1MDA0NCA0Mi4xODQzNC0xOTguMTYwNzA0bC0wLjc5MjcwNS0wLjc5MjcwNWMtNTQuOTE0MjUtNjUuMjgxNTg3LTExMy4wMTQ4NjItNTIuNTM2MTM1LTExNS4zOTI5NzctNTEuNzQzNDNhMTUuOTUwNDY4IDE1Ljk1MDQ2OCAwIDEgMCA3LjE2NTQzMSAzMS4wODY0N2MyLjM3ODExNS0wLjc5MjcwNSA0Mi4xNjg3OTctNy45NTgxMzYgODMuNTYwNDMyIDQwLjU5ODkzIDQuNzcxNzczIDYuMzU3MTgzIDUwLjkxOTYzOCA3OC43NzMxMTUtMzcuNDEyNTY3IDE1NS4xODM2NTlhMTYuMTMzODc4IDE2LjEzMzg3OCAwIDAgMC0xLjU1NDMyNCAyMi4yNzM0NTYgMTUuMzcyMjU5IDE1LjM3MjI1OSAwIDAgMCAxMS45MzcyMDUgNS41NjQ0Nzh6Ii8+PHBhdGggZmlsbD0iIzAwNjQwMCIgZD0iTTg3OC4xOTI3ODIgODgyLjI2MTIzOWEyMy40MzkxOTggMjMuNDM5MTk4IDAgMCAwIDcuMTY1NDMxLTEuNTU0MzIzYzE1NS4xODM2NTktNzguNzg4NjU5IDE0NS42MjQ1NjktMjExLjY5ODg2MiAxMTguNTYzNzk4LTI3MS4zODQ4ODUtNDQuNTYyNDU1LTk4LjY2ODQ1Ni0xMzIuMTE3NDk4LTEwMS4wMzEwMjgtMTcxLjg5MjYzNy04OC4zMzIyMDUtOC43NTA4NDEgMi4zOTM2NTgtMTIuNzI5OTEgMTEuMTQ0NS0xMC4zMzYyNTIgMTkuODk1MzQxczExLjEyODk1NiAxMi43NDU0NTMgMTkuODk1MzQxIDEwLjM1MTc5NWMzLjk3OTA2OC0wLjgwODI0OCA4OS45MTc2MTUtMjUuNDc1MzYyIDEzMy42NzE4MjIgNzAuODMwNTIyIDIuMzkzNjU4IDUuNTY0NDc4IDYyLjg3MjM4NiAxNDUuNjI0NTY5LTEwNC4yNDg0NzggMjMwLjAzOTg3OWExNS45MzE4MTYgMTUuOTMxODE2IDAgMCAwLTcuMTY1NDMxIDIxLjQ4MDc1MSAxNi43NzExNTEgMTYuNzcxMTUxIDAgMCAwIDE0LjMzMDg2MyA4Ljc1MDg0MXoiLz48cGF0aCBmaWxsPSIjMDA2NDAwIiBkPSJNNjkwLjMzNzI0MyAxMDIxLjUyODYyNmM3Mi40MTU5MzIgMCAxMjguMTIyODg3LTMzLjQxNzk1NSAxMjguOTE1NTkyLTM0LjE5NTExOHE1My43MTc0Mi0zNC41OTkyNDEgNjIuMDc5NjgtODMuNTYwNDMxYzguNzUwODQxLTUwLjEyNjkzMy0yMi4yODg5OTktOTAuNzEwMzItMjMuODc0NDA5LTkyLjMxMTI3My01LjU4MDAyMS03LjE2NTQzMS0xNS4xMjM1NjgtNy45NTgxMzYtMjIuMjg4OTk5LTMuMTA4NjQ3LTcuMTY1NDMxIDUuNTY0NDc4LTcuOTU4MTM2IDE1LjEwODAyNC0zLjE4NjM2MyAyMi4yNzM0NTUgMC43OTI3MDUgMC43OTI3MDUgMjMuODc0NDA5IDMyLjY0MDc5NCAxNy41MDE2ODMgNjguMzkwMjM1LTMuOTYzNTI1IDIzLjA4MTcwNC0xOS44OTUzNDEgNDQuNTYyNDU1LTQ3LjczMzI3NSA2Mi4wNzk2ODEtNC43NzE3NzMgMy4xODYzNjMtMTE5LjM3MjA0NSA3Mi40MTU5MzItMjMwLjAzOTg3OS0xMS4xNDQ1LTcuMTY1NDMxLTUuNTY0NDc4LTE2LjcwODk3OC0zLjk3OTA2OC0yMi4yODg5OTkgMy4xMDg2NDdzLTMuOTc5MDY4IDE2LjcwODk3OCAzLjE4NjM2MyAyMi4yNzM0NTZjNDYuOTU2MTEzIDM1LjAxODkwOSA5NS40OTc2MzYgNDYuMTYzNDA4IDEzNy42ODE5NzYgNDYuMTYzNDA4ek02NDUuMDQ0MjU2IDE5MS40ODg3ODZhNTQuOTE0MjUgNTQuOTE0MjUgMCAxIDEgNTQuOTE0MjQ5IDU0LjkxNDI0OUE1NS4wMDc1MDkgNTUuMDA3NTA5IDAgMCAxIDY0NS4wNDQyNTYgMTkxLjQ4ODc4NnogbTMxLjgzMjU0NSAwYTIzLjA4MTcwNCAyMy4wODE3MDQgMCAxIDAgMjMuMDAzOTg4LTIzLjAzNTA3NCAyMy4wOTcyNDcgMjMuMDk3MjQ3IDAgMCAwLTIzLjA4MTcwNCAyMy4wNjYxNnogbTEwMy40NTU3NzMgMjYyLjY4MDY3M2E1NC45MTQyNSA1NC45MTQyNSAwIDEgMSA1NC45MTQyNDkgNTQuODk4NzA2QTU1LjAyMzA1MiA1NS4wMjMwNTIgMCAwIDEgNzgwLjI3MDQwMSA0NTQuMTIyODI5eiBtMzEuODMyNTQ1IDBhMjMuMDgxNzA0IDIzLjA4MTcwNCAwIDEgMCAyMy4wODE3MDQtMjMuMDgxNzA0IDIzLjA5NzI0NyAyMy4wOTcyNDcgMCAwIDAtMjMuMDgxNzA0IDIzLjA4MTcwNHpNNTgxLjMxNjk5MiA2MTMuMjcwMDEzYTU0LjkxNDI1IDU0LjkxNDI1IDAgMSAxIDU0LjkxNDI1IDU0LjkxNDI1QTU1LjAwNzUwOSA1NS4wMDc1MDkgMCAwIDEgNTgxLjMxNjk5MiA2MTMuMjcwMDEzeiBtMzEuODMyNTQ1IDBhMjMuMDgxNzA0IDIzLjA4MTcwNCAwIDEgMCAyMy4wODE3MDUtMjMuMDY2MTYxIDIzLjA5NzI0NyAyMy4wOTcyNDcgMCAwIDAtMjMuMDgxNzA1IDIzLjA2NjE2MXoiLz48cGF0aCBmaWxsPSIjMDA2NDAwIiBkPSJNNTgxLjMxNjk5MiA4ODMuODYyMTkzYTU0LjkxNDI1IDU0LjkxNDI1IDAgMSAxIDU0LjkxNDI1IDU0Ljg5ODcwNkE1NS4wMjMwNTIgNTUuMDIzMDUyIDAgMCAxIDU4MS4zMTY5OTIgODgzLjg2MjE5M3ogbTMxLjgzMjU0NSAwYTIzLjA4MTcwNCAyMy4wODE3MDQgMCAxIDAgMjMuMDgxNzA1LTIzLjA4MTcwNSAyMy4wOTcyNDcgMjMuMDk3MjQ3IDAgMCAwLTIzLjA4MTcwNSAyMy4wODE3MDV6IG0xNTEuMjA0NTkxLTE0My4yNDY0NTVhNTQuOTE0MjUgNTQuOTE0MjUgMCAxIDEgNTQuOTE0MjUgNTQuODk4NzA2IDU1LjAyMzA1MiA1NS4wMjMwNTIgMCAwIDEtNTQuOTE0MjUtNTQuODk4NzA2eiBtMzEuODMyNTQ2IDBhMjMuMDgxNzA0IDIzLjA4MTcwNCAwIDEgMCAyMy4wODE3MDQtMjMuMDgxNzA0IDIzLjA5NzI0NyAyMy4wOTcyNDcgMCAwIDAtMjMuMDgxNzA0IDIzLjA4MTcwNHpNNTEyLjA3MTg4IDkyLjgyMDMzYTE1Ljk2MjkwMiAxNS45NjI5MDIgMCAwIDEtMTUuOTE2MjczLTE1LjkxNjI3M1Y0OC4yNDIzMzFhMTUuOTE2MjczIDE1LjkxNjI3MyAwIDAgMSAzMS44MzI1NDUgMHYyOC42NjE3MjZhMTYuNTA2OTE2IDE2LjUwNjkxNiAwIDAgMS0xNS45MTYyNzIgMTUuOTE2MjczeiBtMCA4My41NjA0MzFhMTUuOTYyOTAyIDE1Ljk2MjkwMiAwIDAgMS0xNS45MTYyNzMtMTUuOTE2MjcyVjEzMS44MTgzMDZhMTUuOTE2MjczIDE1LjkxNjI3MyAwIDEgMSAzMS44MzI1NDUgMHYyOC42NDYxODNhMTYuNTA2OTE2IDE2LjUwNjkxNiAwIDAgMS0xNS45MTYyNzIgMTUuOTE2MjcyeiBtMCA4My41NjA0MzJhMTUuOTYyOTAyIDE1Ljk2MjkwMiAwIDAgMS0xNS45MTYyNzMtMTUuOTE2Mjczdi0yOC42NjE3MjVhMTUuOTE2MjczIDE1LjkxNjI3MyAwIDAgMSAzMS44MzI1NDUgMHYyOC42NjE3MjVhMTYuNTA2OTE2IDE2LjUwNjkxNiAwIDAgMS0xNS45MTYyNzIgMTUuOTE2MjczeiBtMCA4My41NjA0MzJhMTUuOTYyOTAyIDE1Ljk2MjkwMiAwIDAgMS0xNS45MTYyNzMtMTUuOTE2Mjczdi0yOC41Njg0NjZhMTUuOTE2MjczIDE1LjkxNjI3MyAwIDEgMSAzMS44MzI1NDUgMHYyOC42NDYxODJhMTYuNTA2OTE2IDE2LjUwNjkxNiAwIDAgMS0xNS45MTYyNzIgMTUuOTE2MjczeiBtMCA4Mi43NTIxODRBMTUuOTQ3MzU5IDE1Ljk0NzM1OSAwIDAgMSA0OTYuMTU1NjA3IDQxMC4zNTMwNzl2LTI4LjY2MTcyNWExNS45MTYyNzMgMTUuOTE2MjczIDAgMCAxIDMxLjgzMjU0NSAwVjQxMC4zNTMwNzlhMTYuNDkxMzcyIDE2LjQ5MTM3MiAwIDAgMS0xNS45MTYyNzIgMTUuOTAwNzN6IG0wIDgzLjU2MDQzMWExNS45NjI5MDIgMTUuOTYyOTAyIDAgMCAxLTE1LjkxNjI3My0xNS45MTYyNzJ2LTI4LjU2ODQ2NmExNS45MTYyNzMgMTUuOTE2MjczIDAgMCAxIDMxLjgzMjU0NSAwdjI4LjY0NjE4MmExNi40OTEzNzIgMTYuNDkxMzcyIDAgMCAxLTE1LjkxNjI3MiAxNS45MTYyNzN6IG0wIDgzLjU2MDQzMmExNS45NjI5MDIgMTUuOTYyOTAyIDAgMCAxLTE1LjkxNjI3My0xNS45MTYyNzN2LTI4LjY0NjE4MmExNS45MTYyNzMgMTUuOTE2MjczIDAgMCAxIDMxLjgzMjU0NSAwdjI4LjY0NjE4MmExNi40OTEzNzIgMTYuNDkxMzcyIDAgMCAxLTE1LjkxNjI3MiAxNS45MTYyNzN6IG0wIDgzLjU2MDQzMmExNS45NjI5MDIgMTUuOTYyOTAyIDAgMCAxLTE1LjkxNjI3My0xNS45MTYyNzN2LTI4LjY0NjE4MmExNS45MTYyNzMgMTUuOTE2MjczIDAgMCAxIDMxLjgzMjU0NSAwdjI4LjY0NjE4MmExNi40OTEzNzIgMTYuNDkxMzcyIDAgMCAxLTE1LjkxNjI3MiAxNS45MTYyNzN6IG0wIDgzLjU2MDQzMmExNS45NjI5MDIgMTUuOTYyOTAyIDAgMCAxLTE1LjkxNjI3My0xNS45MTYyNzNWNzE1LjkzMzA4MWExNS45MTYyNzMgMTUuOTE2MjczIDAgMCAxIDMxLjgzMjU0NSAwdjI4LjY0NjE4MmExNi40OTEzNzIgMTYuNDkxMzcyIDAgMCAxLTE1LjkxNjI3MiAxNS45MTYyNzN6IG0wIDgyLjc2NzcyNmExNS45NjI5MDIgMTUuOTYyOTAyIDAgMCAxLTE1LjkxNjI3My0xNS45MTYyNzJ2LTI4LjY0NjE4MmExNS45MTYyNzMgMTUuOTE2MjczIDAgMCAxIDMxLjgzMjU0NSAwdjI4LjY0NjE4MmExNi41MDY5MTYgMTYuNTA2OTE2IDAgMCAxLTE1LjkxNjI3MiAxNS45MTYyNzJ6IG0wIDgzLjU2MDQzMmExNS45NjI5MDIgMTUuOTYyOTAyIDAgMCAxLTE1LjkxNjI3My0xNS45MTYyNzJ2LTI4LjY0NjE4M2ExNS45MTYyNzMgMTUuOTE2MjczIDAgMCAxIDMxLjgzMjU0NSAwdjI4LjY0NjE4M2ExNi40OTEzNzIgMTYuNDkxMzcyIDAgMCAxLTE1LjkxNjI3MiAxNS45MTYyNzJ6IG0wIDgzLjU2MDQzMmExNS45NjI5MDIgMTUuOTYyOTAyIDAgMCAxLTE1LjkxNjI3My0xNS45MTYyNzN2LTI4LjY0NjE4MmExNS45MTYyNzMgMTUuOTE2MjczIDAgMCAxIDMxLjgzMjU0NSAwdjI4LjY0NjE4MmExNi41MDY5MTYgMTYuNTA2OTE2IDAgMCAxLTE1LjkxNjI3MiAxNS45MTYyNzN6Ii8+PHBhdGggZmlsbD0iIzAwNjQwMCIgZD0iTTYzNy4wMDg0MDMgODUyLjgyMjM1MmExNS45NjI5MDIgMTUuOTYyOTAyIDAgMCAwIDE1LjkxNjI3My0xNS45MzE4MTZWNjYxLjgyNzA3OWExNS45MTYyNzMgMTUuOTE2MjczIDAgMCAwLTMxLjgzMjU0NSAwdjE3NS4wNjM0NTdhMTUuOTYyOTAyIDE1Ljk2MjkwMiAwIDAgMCAxNS45MTYyNzIgMTUuOTMxODE2eiBtMTg1LjQzMDc5NS0xNDEuNjYxMDQ0YTE1Ljk2MjkwMiAxNS45NjI5MDIgMCAwIDAgMTUuOTE2MjcyLTE1LjkxNjI3M3YtODIuNzY3NzI3YTE1LjkxNjI3MyAxNS45MTYyNzMgMCAxIDAtMzEuODMyNTQ1IDB2ODMuNTYwNDMyYzAgNy45NTgxMzYgNy4xNjU0MzEgMTUuMTIzNTY4IDE1LjkxNjI3MyAxNS4xMjM1Njh6IG0tMTg1LjQzMDc5NS0xMzEuMzA5MjVhMTUuOTYyOTAyIDE1Ljk2MjkwMiAwIDAgMCAxNS45MTYyNzMtMTUuOTE2Mjczdi0xMDUuODQ5NDMxYTE1LjkxNjI3MyAxNS45MTYyNzMgMCAwIDAtMzEuODMyNTQ1IDB2MTA1Ljg0OTQzMWExNS45NjI5MDIgMTUuOTYyOTAyIDAgMCAwIDE1LjkxNjI3MiAxNS45MTYyNzN6Ii8+PHBhdGggZmlsbD0iIzAwNjQwMCIgZD0iTTgwNi41MjI5MjUgNDU1LjcwODIzOWExNS45NjI5MDIgMTUuOTYyOTAyIDAgMCAwLTE1LjkxNjI3My0xNS45MTYyNzNoLTE1Mi44MDU1NDRhMTUuOTE2MjczIDE1LjkxNjI3MyAwIDEgMCAwIDMxLjgzMjU0NmgxNTIuODA1NTQ0YTE1Ljk2MjkwMiAxNS45NjI5MDIgMCAwIDAgMTUuOTE2MjczLTE1LjkxNjI3M3ogbTMxLjgzMjU0NSAxNTEuMjA0NTkxYTE1Ljk2MjkwMiAxNS45NjI5MDIgMCAwIDAtMTUuOTE2MjcyLTE1LjkxNjI3M2gtMTQ2LjQzMjgxOGExNS45MTYyNzMgMTUuOTE2MjczIDAgMSAwIDAgMzEuODMyNTQ2aDE0Ni40MzI4MThhMTUuOTYyOTAyIDE1Ljk2MjkwMiAwIDAgMCAxNS45MTYyNzItMTUuOTE2MjczeiIvPjxwYXRoIGZpbGw9IiMwMDY0MDAiIGQ9Ik02OTkuMDg4MDg0IDQ2MC40ODAwMTJBMTUuOTYyOTAyIDE1Ljk2MjkwMiAwIDAgMCA3MTQuOTg4ODE0IDQ0NC41NjM3MzlWMjM3LjY1MjE5NGExNS45MTYyNzMgMTUuOTE2MjczIDAgMSAwLTMxLjgzMjU0NiAwdjIwNi45MTE1NDVhMTUuOTYyOTAyIDE1Ljk2MjkwMiAwIDAgMCAxNS45MTYyNzMgMTUuOTE2MjczeiIvPjwvc3ZnPg==;" vertex="1" parent="1">
          <mxGeometry x="430" y="170" width="50" height="50" as="geometry" />
        </mxCell>
        <mxCell id="bGuDQTHDIBOHRL4KEgD5-5" value="&lt;font style=&quot;font-size: 10px;&quot;&gt;Predictor&lt;/font&gt;" style="text;html=1;align=center;verticalAlign=middle;whiteSpace=wrap;rounded=0;" vertex="1" parent="1">
          <mxGeometry x="425" y="210" width="60" height="30" as="geometry" />
        </mxCell>
        <mxCell id="bGuDQTHDIBOHRL4KEgD5-19" style="rounded=0;orthogonalLoop=1;jettySize=auto;html=1;exitX=0.5;exitY=1;exitDx=0;exitDy=0;entryX=0.5;entryY=0;entryDx=0;entryDy=0;endSize=4;" edge="1" parent="1" source="bGuDQTHDIBOHRL4KEgD5-6" target="bGuDQTHDIBOHRL4KEgD5-7">
          <mxGeometry relative="1" as="geometry" />
        </mxCell>
        <mxCell id="bGuDQTHDIBOHRL4KEgD5-6" value="&lt;span style=&quot;font-size: 10px;&quot;&gt;Write snapshot&lt;/span&gt;" style="rounded=1;whiteSpace=wrap;html=1;" vertex="1" parent="1">
          <mxGeometry x="550" y="180" width="70" height="30" as="geometry" />
        </mxCell>
        <mxCell id="bGuDQTHDIBOHRL4KEgD5-25" style="edgeStyle=orthogonalEdgeStyle;rounded=0;orthogonalLoop=1;jettySize=auto;html=1;exitX=0;exitY=0.5;exitDx=0;exitDy=0;entryX=1;entryY=0.25;entryDx=0;entryDy=0;curved=1;endSize=4;" edge="1" parent="1" source="bGuDQTHDIBOHRL4KEgD5-7" target="bGuDQTHDIBOHRL4KEgD5-10">
          <mxGeometry relative="1" as="geometry" />
        </mxCell>
        <mxCell id="bGuDQTHDIBOHRL4KEgD5-7" value="&lt;span style=&quot;font-size: 10px;&quot;&gt;Snapshot file&lt;/span&gt;" style="rounded=1;whiteSpace=wrap;html=1;" vertex="1" parent="1">
          <mxGeometry x="600" y="260" width="70" height="30" as="geometry" />
        </mxCell>
        <mxCell id="bGuDQTHDIBOHRL4KEgD5-23" style="edgeStyle=orthogonalEdgeStyle;rounded=0;orthogonalLoop=1;jettySize=auto;html=1;exitX=0;exitY=0.5;exitDx=0;exitDy=0;entryX=1;entryY=0.5;entryDx=0;entryDy=0;endSize=4;" edge="1" parent="1" source="bGuDQTHDIBOHRL4KEgD5-9" target="bGuDQTHDIBOHRL4KEgD5-10">
          <mxGeometry relative="1" as="geometry" />
        </mxCell>
        <mxCell id="bGuDQTHDIBOHRL4KEgD5-9" value="&lt;font style=&quot;vertical-align: inherit;&quot; dir=&quot;auto&quot;&gt;&lt;font style=&quot;vertical-align: inherit; font-size: 10px;&quot; dir=&quot;auto&quot;&gt;Database startup&lt;/font&gt;&lt;/font&gt;" style="rounded=1;whiteSpace=wrap;html=1;" vertex="1" parent="1">
          <mxGeometry x="550" y="320" width="70" height="30" as="geometry" />
        </mxCell>
        <mxCell id="bGuDQTHDIBOHRL4KEgD5-31" style="edgeStyle=orthogonalEdgeStyle;rounded=0;orthogonalLoop=1;jettySize=auto;html=1;exitX=0;exitY=0.5;exitDx=0;exitDy=0;entryX=1;entryY=0.5;entryDx=0;entryDy=0;endSize=4;" edge="1" parent="1" source="bGuDQTHDIBOHRL4KEgD5-10" target="bGuDQTHDIBOHRL4KEgD5-11">
          <mxGeometry relative="1" as="geometry" />
        </mxCell>
        <mxCell id="bGuDQTHDIBOHRL4KEgD5-10" value="&lt;font style=&quot;vertical-align: inherit;&quot; dir=&quot;auto&quot;&gt;&lt;font style=&quot;vertical-align: inherit; font-size: 10px;&quot; dir=&quot;auto&quot;&gt;Read the snapshot file&lt;/font&gt;&lt;/font&gt;" style="rounded=1;whiteSpace=wrap;html=1;" vertex="1" parent="1">
          <mxGeometry x="430" y="320" width="70" height="30" as="geometry" />
        </mxCell>
        <mxCell id="bGuDQTHDIBOHRL4KEgD5-35" style="edgeStyle=orthogonalEdgeStyle;rounded=0;orthogonalLoop=1;jettySize=auto;html=1;exitX=0;exitY=0.5;exitDx=0;exitDy=0;entryX=1;entryY=0.5;entryDx=0;entryDy=0;endSize=4;" edge="1" parent="1" source="bGuDQTHDIBOHRL4KEgD5-11" target="bGuDQTHDIBOHRL4KEgD5-33">
          <mxGeometry relative="1" as="geometry" />
        </mxCell>
        <mxCell id="bGuDQTHDIBOHRL4KEgD5-11" value="&lt;font style=&quot;vertical-align: inherit;&quot; dir=&quot;auto&quot;&gt;&lt;font style=&quot;vertical-align: inherit; font-size: 10px;&quot; dir=&quot;auto&quot;&gt;Parallel loading&lt;/font&gt;&lt;/font&gt;" style="rounded=1;whiteSpace=wrap;html=1;" vertex="1" parent="1">
          <mxGeometry x="320" y="320" width="70" height="30" as="geometry" />
        </mxCell>
        <mxCell id="bGuDQTHDIBOHRL4KEgD5-14" value="&lt;font style=&quot;font-size: 10px;&quot;&gt;Runtime Background Thread&lt;/font&gt;" style="text;html=1;align=center;verticalAlign=middle;whiteSpace=wrap;rounded=0;" vertex="1" parent="1">
          <mxGeometry x="60" y="150" width="210" height="30" as="geometry" />
        </mxCell>
        <mxCell id="bGuDQTHDIBOHRL4KEgD5-16" value="&lt;font style=&quot;font-size: 10px;&quot;&gt;Restart and Preload Stages&lt;/font&gt;" style="text;html=1;align=center;verticalAlign=middle;whiteSpace=wrap;rounded=0;" vertex="1" parent="1">
          <mxGeometry x="420" y="350" width="210" height="30" as="geometry" />
        </mxCell>
        <mxCell id="bGuDQTHDIBOHRL4KEgD5-30" value="&lt;font style=&quot;font-size: 10px;&quot;&gt;Output result&lt;/font&gt;" style="text;html=1;align=center;verticalAlign=middle;whiteSpace=wrap;rounded=0;" vertex="1" parent="1">
          <mxGeometry x="485" y="170" width="60" height="30" as="geometry" />
        </mxCell>
        <mxCell id="bGuDQTHDIBOHRL4KEgD5-33" value="" style="shape=image;imageAspect=0;aspect=fixed;verticalLabelPosition=bottom;verticalAlign=top;image=data:image/svg+xml,PHN2ZyB4bWxuczp4bGluaz0iaHR0cDovL3d3dy53My5vcmcvMTk5OS94bGluayIgeG1sbnM9Imh0dHA6Ly93d3cudzMub3JnLzIwMDAvc3ZnIiBoZWlnaHQ9IjE5OS45OTcxMTUxMzUxOTI4NyIgd2lkdGg9IjE5NC4yOTgyMTk2ODA3ODYxMyIgdmVyc2lvbj0iMS4xIiB2aWV3Qm94PSIxNC42MDE5NzkyNTU2NzYyNyAwLjAwMjE4MjU5ODQ1ODYwMzAyNDUgOTk0LjgwNjg4NDc2NTYyNSAxMDIzLjk4NTIyOTQ5MjE4NzUiIGNsYXNzPSJpY29uIj48cGF0aCBmaWxsPSIjMzMzMzMzIiBkPSJNNDg2LjY1NiA1LjYzMkwyNC45NiAyMjEuMzEyYTE3Ljk2MyAxNy45NjMgMCAwIDAgMC4xMDcgMzIuNTk3bDQ2NS4yNTggMjE0LjA4YTUxLjg4MyA1MS44ODMgMCAwIDAgNDMuMzUgMGw0NjUuMjgtMjE0LjA4YTE3Ljk2MyAxNy45NjMgMCAwIDAgMC4wODUtMzIuNTc2TDUzNy4zNDQgNS42MzJhNTkuODYxIDU5Ljg2MSAwIDAgMC01MC42ODggMHoiLz48cGF0aCBmaWxsPSIjMzMzMzMzIiBkPSJNOTk5LjA0IDQ5OC4xNzZsLTk1LjM2LTQ0LjU0NGE1MS44ODMgNTEuODgzIDAgMCAwLTQzLjY0OC0wLjEyOEw1MzMuNjc1IDYwMy42NjlhNTEuODgzIDUxLjg4MyAwIDAgMS00My4zNSAwTDE2My45NjggNDUzLjUwNGE1MS44ODMgNTEuODgzIDAgMCAwLTQzLjY0OCAwLjEyOGwtOTUuMzYgNDQuNTQ0YTE3Ljk2MyAxNy45NjMgMCAwIDAgMC4xMDcgMzIuNTc2bDQ2NS4yNTggMjE0LjA4YTUxLjg4MyA1MS44ODMgMCAwIDAgNDMuMzUgMGw0NjUuMjgtMjE0LjA4YTE3Ljk2MyAxNy45NjMgMCAwIDAgMC4wODUtMzIuNTc2eiIvPjxwYXRoIGZpbGw9IiMzMzMzMzMiIGQ9Ik05OTkuMDQgNzcyLjU4N2wtOTUuMzYtNDQuNTQ0YTUxLjg4MyA1MS44ODMgMCAwIDAtNDMuNjQ4LTAuMTI4TDUzMy42NzUgODc4LjA4YTUxLjg4MyA1MS44ODMgMCAwIDEtNDMuMzUgMEwxNjMuOTY4IDcyNy45MTVhNTEuODgzIDUxLjg4MyAwIDAgMC00My42NDggMC4xMjhsLTk1LjM2IDQ0LjU0NGExNy45NjMgMTcuOTYzIDAgMCAwIDAuMTA3IDMyLjU5N2w0NjUuMjU4IDIxNC4wNTlhNTEuODgzIDUxLjg4MyAwIDAgMCA0My4zNSAwbDQ2NS4yOC0yMTQuMDU5YTE3Ljk2MyAxNy45NjMgMCAwIDAgMC4wODUtMzIuNTk3eiIvPjwvc3ZnPg==;" vertex="1" parent="1">
          <mxGeometry x="231.2" y="315" width="38.8" height="40" as="geometry" />
        </mxCell>
        <mxCell id="bGuDQTHDIBOHRL4KEgD5-34" value="&lt;font style=&quot;font-size: 10px;&quot;&gt;Buffer pool&lt;/font&gt;" style="text;html=1;align=center;verticalAlign=middle;whiteSpace=wrap;rounded=0;" vertex="1" parent="1">
          <mxGeometry x="220.60000000000002" y="350" width="60" height="30" as="geometry" />
        </mxCell>
      </root>
    </mxGraphModel>
  </diagram>
</mxfile>
